<svg width="24" height="24" viewBox="0 0 24 24" fill="none" xmlns="http://www.w3.org/2000/svg">
<mask id="mask0_0_2555" style="mask-type:alpha" maskUnits="userSpaceOnUse" x="4" y="1" width="17" height="22">
<path fill-rule="evenodd" clip-rule="evenodd" d="M18.1375 8.665H17.1847V6.75928C17.1847 4.1294 15.0503 1.995 12.4204 1.995C9.79049 1.995 7.6561 4.1294 7.6561 6.75928H9.56181C9.56181 5.17754 10.8386 3.90071 12.4204 3.90071C14.0021 3.90071 15.279 5.17754 15.279 6.75928V8.665H6.70324C5.65509 8.665 4.79752 9.52257 4.79752 10.5707V20.0993C4.79752 21.1474 5.65509 22.005 6.70324 22.005H18.1375C19.1857 22.005 20.0432 21.1474 20.0432 20.0993V10.5707C20.0432 9.52257 19.1857 8.665 18.1375 8.665ZM6.70324 20.0993V10.5707H18.1375V20.0993H6.70324ZM14.3261 15.335C14.3261 16.3831 13.4685 17.2407 12.4204 17.2407C11.3722 17.2407 10.5147 16.3831 10.5147 15.335C10.5147 14.2869 11.3722 13.4293 12.4204 13.4293C13.4685 13.4293 14.3261 14.2869 14.3261 15.335Z" fill="white"/>
</mask>
<g mask="url(#mask0_0_2555)">
<rect width="24" height="24" fill="#66788A"/>
</g>
</svg>
