<svg width="24" height="24" viewBox="0 0 24 24" fill="none" xmlns="http://www.w3.org/2000/svg">
<mask id="mask0_0_2608" style="mask-type:alpha" maskUnits="userSpaceOnUse" x="3" y="1" width="18" height="21">
<path fill-rule="evenodd" clip-rule="evenodd" d="M11.565 18.5163V21.6483L12.8091 21.048C17.2722 18.8991 20.265 14.5665 20.265 10.26C20.265 5.7012 16.5588 1.995 12 1.995C7.4412 1.995 3.735 5.7012 3.735 10.26C3.735 14.6709 7.2063 18.2901 11.565 18.5163ZM5.475 10.26C5.475 6.6582 8.3982 3.735 12 3.735C15.6018 3.735 18.525 6.6582 18.525 10.26C18.525 13.4964 16.4718 16.785 13.305 18.786V16.785H12C8.3982 16.785 5.475 13.8618 5.475 10.26ZM12.87 13.74V15.48H11.13V13.74H12.87ZM12.6703 9.66985C11.9496 10.2222 11.13 10.8505 11.13 12.435H12.87C12.87 11.482 13.4886 10.9414 14.1235 10.3866C14.7927 9.80178 15.48 9.20113 15.48 8.085C15.48 6.16229 13.9227 4.605 12 4.605C10.0773 4.605 8.52 6.16229 8.52 8.085H10.26C10.26 7.128 11.043 6.345 12 6.345C12.957 6.345 13.74 7.128 13.74 8.085C13.74 8.84991 13.2356 9.23653 12.6703 9.66985Z" fill="white"/>
</mask>
<g mask="url(#mask0_0_2608)">
<rect width="24" height="24" fill="#66788A"/>
</g>
</svg>
