<svg width="24" height="24" viewBox="0 0 24 24" fill="none" xmlns="http://www.w3.org/2000/svg">
<mask id="mask0_0_2463" style="mask-type:alpha" maskUnits="userSpaceOnUse" x="2" y="3" width="20" height="18">
<path fill-rule="evenodd" clip-rule="evenodd" d="M16.3024 9.82501H20.4697C20.9482 9.82501 21.3397 10.2165 21.3397 10.695L21.3136 10.9299L19.1038 18.9948C18.895 19.7256 18.2251 20.265 17.4247 20.265H6.11471C5.31431 20.265 4.64441 19.7256 4.44431 18.9948L2.23451 10.9299C2.20841 10.8516 2.19971 10.7733 2.19971 10.695C2.19971 10.2165 2.59121 9.82501 3.06971 9.82501H7.23701L11.0476 4.12651C11.2129 3.87421 11.4913 3.75241 11.7697 3.75241C12.0481 3.75241 12.3265 3.87421 12.4918 4.11781L16.3024 9.82501ZM14.2057 9.82501L11.7697 6.17101L9.33371 9.82501H14.2057ZM17.4247 18.525L6.12341 18.5337L4.20941 11.565H19.3387L17.4247 18.525ZM10.0297 15.045C10.0297 14.088 10.8127 13.305 11.7697 13.305C12.7267 13.305 13.5097 14.088 13.5097 15.045C13.5097 16.002 12.7267 16.785 11.7697 16.785C10.8127 16.785 10.0297 16.002 10.0297 15.045Z" fill="white"/>
</mask>
<g mask="url(#mask0_0_2463)">
<rect width="24" height="24" fill="#66788A"/>
</g>
</svg>
