<svg width="24" height="24" viewBox="0 0 24 24" fill="none" xmlns="http://www.w3.org/2000/svg">
<mask id="mask0_0_2428" style="mask-type:alpha" maskUnits="userSpaceOnUse" x="2" y="5" width="20" height="14">
<path fill-rule="evenodd" clip-rule="evenodd" d="M9.11341 12C10.9524 12 12.4484 10.504 12.4484 8.665C12.4484 6.82599 10.9524 5.33 9.11341 5.33C7.27439 5.33 5.77841 6.82599 5.77841 8.665C5.77841 10.504 7.27439 12 9.11341 12ZM2.44341 17.0025C2.44341 14.7823 6.88372 13.6675 9.11341 13.6675C11.3431 13.6675 15.7834 14.7823 15.7834 17.0025V18.67H2.44341V17.0025ZM9.11341 15.5732C7.40779 15.5732 5.47349 16.2116 4.67309 16.7643H13.5537C12.7533 16.2116 10.819 15.5732 9.11341 15.5732ZM10.5427 8.665C10.5427 7.87413 9.90428 7.23572 9.11341 7.23572C8.32253 7.23572 7.68412 7.87413 7.68412 8.665C7.68412 9.45587 8.32253 10.0943 9.11341 10.0943C9.90428 10.0943 10.5427 9.45587 10.5427 8.665ZM15.8215 13.7247C16.9268 14.5251 17.6891 15.5923 17.6891 17.0025V18.67H21.5005V17.0025C21.5005 15.0777 18.1655 13.9819 15.8215 13.7247ZM18.1655 8.665C18.1655 10.504 16.6696 12 14.8305 12C14.316 12 13.8396 11.8761 13.4013 11.6665C14.0016 10.8185 14.3541 9.77984 14.3541 8.665C14.3541 7.55016 14.0016 6.51154 13.4013 5.6635C13.8396 5.45387 14.316 5.33 14.8305 5.33C16.6696 5.33 18.1655 6.82599 18.1655 8.665Z" fill="white"/>
</mask>
<g mask="url(#mask0_0_2428)">
<rect width="24" height="24" fill="#66788A"/>
</g>
</svg>
