<svg width="24" height="24" viewBox="0 0 24 24" fill="none" xmlns="http://www.w3.org/2000/svg">
<mask id="mask0_0_2542" style="mask-type:alpha" maskUnits="userSpaceOnUse" x="4" y="2" width="17" height="21">
<path fill-rule="evenodd" clip-rule="evenodd" d="M18.3855 16.002V10.9995C18.3855 7.92795 16.7547 5.35667 13.8833 4.67633V3.99599C13.8833 3.16557 13.213 2.49524 12.3825 2.49524C11.5521 2.49524 10.8818 3.16557 10.8818 3.99599V4.67633C8.02037 5.35667 6.37955 7.91795 6.37955 10.9995V16.002L4.37855 18.003V19.0035H20.3865V18.003L18.3855 16.002ZM12.3825 22.005C13.4831 22.005 14.3835 21.1045 14.3835 20.004H10.3815C10.3815 21.1045 11.282 22.005 12.3825 22.005ZM8.38055 17.0025H16.3845V10.9995C16.3845 8.51825 14.8738 6.49724 12.3825 6.49724C9.8913 6.49724 8.38055 8.51825 8.38055 10.9995V17.0025Z" fill="white"/>
</mask>
<g mask="url(#mask0_0_2542)">
<rect width="24" height="24" fill="white"/>
</g>
</svg>
